<svg xmlns="http://www.w3.org/2000/svg" width="40.211" height="40.72" viewBox="0 0 40.211 40.72"><defs><style>.a{fill:rgba(0,0,0,0);}.b{fill:#373737;}</style></defs><g transform="translate(0)"><rect class="a" width="40.211" height="40.72"/></g><g transform="translate(9.623 7.72)"><g transform="translate(0)"><path class="b" d="M14.043,6.026V1l6.283,6.283-6.283,6.283V8.54a7.54,7.54,0,1,0,7.54,7.54H24.1A10.053,10.053,0,1,1,14.043,6.026Z" transform="translate(-3.99 -1)"/><g transform="translate(6.333 13.42)"><path class="b" d="M11.367,17.1H10.3V13l-1.269.39v-.867l2.224-.792h.113V17.1Z" transform="translate(-9.03 -11.667)"/><path class="b" d="M15.912,14.9a3.5,3.5,0,0,1-.126,1.03,2.258,2.258,0,0,1-.364.716,1.408,1.408,0,0,1-.565.415,1.953,1.953,0,0,1-.741.126,2,2,0,0,1-.741-.126,1.448,1.448,0,0,1-.578-.415,1.94,1.94,0,0,1-.377-.716,3.525,3.525,0,0,1-.138-1.03v-.93a3.5,3.5,0,0,1,.126-1.03,2.258,2.258,0,0,1,.364-.716,1.408,1.408,0,0,1,.565-.415,1.953,1.953,0,0,1,.741-.126,2,2,0,0,1,.741.126,1.448,1.448,0,0,1,.578.415,1.94,1.94,0,0,1,.377.716,3.526,3.526,0,0,1,.138,1.03Zm-1.068-1.081a2.772,2.772,0,0,0-.05-.6,1.26,1.26,0,0,0-.151-.39.488.488,0,0,0-.239-.214.875.875,0,0,0-.314-.063.823.823,0,0,0-.314.063.548.548,0,0,0-.239.214,1.26,1.26,0,0,0-.151.39,2.772,2.772,0,0,0-.05.6v1.219a2.772,2.772,0,0,0,.05.6,1.347,1.347,0,0,0,.151.4.488.488,0,0,0,.239.214.875.875,0,0,0,.314.063.823.823,0,0,0,.314-.063.548.548,0,0,0,.239-.214,1.078,1.078,0,0,0,.138-.4,3.875,3.875,0,0,0,.05-.6V13.816Z" transform="translate(-8.196 -11.68)"/></g></g></g></svg>