<svg xmlns="http://www.w3.org/2000/svg" width="27" height="33.48" viewBox="0 0 27 33.48"><defs><style>.a{fill:#64afd6;}</style></defs><g transform="translate(-14 -2)"><g transform="translate(14 2)"><g transform="translate(0)"><path class="a" d="M38.3,35.48H16.7a2.7,2.7,0,0,1-2.7-2.7V4.7A2.7,2.7,0,0,1,16.7,2H27.685a2.682,2.682,0,0,1,1.909.791L40.209,13.406A2.682,2.682,0,0,1,41,15.315V32.78A2.7,2.7,0,0,1,38.3,35.48ZM16.7,3.08A1.622,1.622,0,0,0,15.08,4.7V32.78A1.622,1.622,0,0,0,16.7,34.4H38.3a1.622,1.622,0,0,0,1.62-1.62V15.315a1.632,1.632,0,0,0-.474-1.145L28.831,3.554a1.609,1.609,0,0,0-1.145-.474Z" transform="translate(-14 -2)"/></g><g transform="translate(5.048 10.53)"><path class="a" d="M49.576,51.616a.852.852,0,0,0-.248-.427,3.45,3.45,0,0,0-2.227-.527,18.4,18.4,0,0,0-2.678.2A6.673,6.673,0,0,1,43.179,50a9.071,9.071,0,0,1-2.244-3.48c.032-.127.059-.238.086-.351a22.641,22.641,0,0,0,.394-4.077,1.184,1.184,0,0,0-.07-.292l-.046-.119a.966.966,0,0,0-.88-.675L40.155,41H40.15a1,1,0,0,0-1.015.637c-.324,1.2.011,2.994.618,5.316l-.157.378c-.435,1.064-.98,2.133-1.461,3.075l-.062.122c-.508.991-.967,1.833-1.385,2.546l-.429.227c-.032.016-.769.408-.942.51-1.466.877-2.438,1.871-2.6,2.66a.652.652,0,0,0,.248.724l.416.211a1.278,1.278,0,0,0,.567.135c1.045,0,2.257-1.3,3.928-4.217a39.078,39.078,0,0,1,6.051-1.436,10.439,10.439,0,0,0,4.409,1.4,2.039,2.039,0,0,0,.518-.057.9.9,0,0,0,.516-.351A1.869,1.869,0,0,0,49.576,51.616ZM33.721,56.749a7.253,7.253,0,0,1,2.06-2.465c.07-.057.243-.219.4-.37C35.014,55.774,34.234,56.514,33.721,56.749Zm6.6-15.209c.335,0,.527.845.543,1.639a3.369,3.369,0,0,1-.4,1.763,8.558,8.558,0,0,1-.283-2.2S40.172,41.54,40.325,41.54ZM38.354,52.378q.352-.628.726-1.328a24.874,24.874,0,0,0,1.274-2.781,9.2,9.2,0,0,0,2.1,2.611c.105.086.216.175.329.265A26.711,26.711,0,0,0,38.354,52.378ZM49,52.283a1.555,1.555,0,0,1-.586.1,6.878,6.878,0,0,1-2.43-.734c.408-.03.783-.046,1.118-.046a4.291,4.291,0,0,1,1.4.151C49.1,51.908,49.106,52.218,49,52.283Z" transform="translate(-32.697 -41)"/></g></g></g></svg>