<svg xmlns="http://www.w3.org/2000/svg" width="27.931" height="20.955" viewBox="0 0 27.931 20.955"><defs><style>.a{fill:#64afd6;}.b{fill:#fff;}</style></defs><path class="a" d="M27.652,8.522a6.716,6.716,0,0,0-1.11-2.959,3.853,3.853,0,0,0-2.8-1.26C19.835,4,13.972,4,13.972,4h-.013S8.1,4,4.188,4.3a3.855,3.855,0,0,0-2.8,1.26A6.728,6.728,0,0,0,.279,8.522,47.994,47.994,0,0,0,0,13.343V15.6a47.977,47.977,0,0,0,.279,4.822,6.7,6.7,0,0,0,1.11,2.956,4.568,4.568,0,0,0,3.08,1.274c2.234.229,9.5.3,9.5.3s5.869-.01,9.778-.31a3.87,3.87,0,0,0,2.8-1.263,6.714,6.714,0,0,0,1.11-2.956,48,48,0,0,0,.279-4.822v-2.26A48,48,0,0,0,27.652,8.522Z" transform="translate(0 -4)"/><path class="b" d="M12,10V22l10-6Z" transform="translate(-2.215 -5.522)"/></svg>