<svg xmlns="http://www.w3.org/2000/svg" width="27.261" height="27.261" viewBox="0 0 27.261 27.261">
  <path id="Pfad_44" data-name="Pfad 44" d="M13.63,2.423a41.794,41.794,0,0,1,5.452.151,7.024,7.024,0,0,1,2.575.454A5.319,5.319,0,0,1,24.232,5.6a7.024,7.024,0,0,1,.454,2.575c0,1.363.151,1.817.151,5.452a41.794,41.794,0,0,1-.151,5.452,7.024,7.024,0,0,1-.454,2.575,5.319,5.319,0,0,1-2.575,2.575,7.024,7.024,0,0,1-2.575.454c-1.363,0-1.817.151-5.452.151a41.793,41.793,0,0,1-5.452-.151A7.024,7.024,0,0,1,5.6,24.232a5.319,5.319,0,0,1-2.575-2.575,7.024,7.024,0,0,1-.454-2.575c0-1.363-.151-1.817-.151-5.452a41.794,41.794,0,0,1,.151-5.452A7.024,7.024,0,0,1,3.029,5.6a5.439,5.439,0,0,1,1.06-1.514A2.561,2.561,0,0,1,5.6,3.029a7.024,7.024,0,0,1,2.575-.454,41.794,41.794,0,0,1,5.452-.151M13.63,0a44.749,44.749,0,0,0-5.6.151A9.35,9.35,0,0,0,4.695.757,5.929,5.929,0,0,0,2.272,2.272,5.929,5.929,0,0,0,.757,4.695,6.9,6.9,0,0,0,.151,8.027,44.749,44.749,0,0,0,0,13.63a44.749,44.749,0,0,0,.151,5.6,9.35,9.35,0,0,0,.606,3.332,5.929,5.929,0,0,0,1.514,2.423A5.929,5.929,0,0,0,4.695,26.5a9.35,9.35,0,0,0,3.332.606,44.749,44.749,0,0,0,5.6.151,44.749,44.749,0,0,0,5.6-.151,9.35,9.35,0,0,0,3.332-.606A6.354,6.354,0,0,0,26.5,22.566a9.35,9.35,0,0,0,.606-3.332c0-1.514.151-1.969.151-5.6a44.749,44.749,0,0,0-.151-5.6A9.35,9.35,0,0,0,26.5,4.695a5.929,5.929,0,0,0-1.514-2.423A5.929,5.929,0,0,0,22.566.757,9.35,9.35,0,0,0,19.234.151,44.749,44.749,0,0,0,13.63,0m0,6.664A6.854,6.854,0,0,0,6.664,13.63,6.967,6.967,0,1,0,13.63,6.664m0,11.51A4.462,4.462,0,0,1,9.087,13.63,4.462,4.462,0,0,1,13.63,9.087a4.462,4.462,0,0,1,4.543,4.543,4.462,4.462,0,0,1-4.543,4.543M20.9,4.695a1.666,1.666,0,1,0,1.666,1.666A1.681,1.681,0,0,0,20.9,4.695" fill="#64afd6" fill-rule="evenodd"/>
</svg>
