<svg xmlns="http://www.w3.org/2000/svg" width="27.261" height="22.111" viewBox="0 0 27.261 22.111">
  <path id="Pfad_43" data-name="Pfad 43" d="M46.633,24.111c10.3,0,15.9-8.481,15.9-15.9V7.452a12.31,12.31,0,0,0,2.726-2.878,12.572,12.572,0,0,1-3.18.909A5.892,5.892,0,0,0,64.5,2.454,13.892,13.892,0,0,1,61.02,3.817,5.409,5.409,0,0,0,56.931,2a5.69,5.69,0,0,0-5.6,5.6,2.953,2.953,0,0,0,.151,1.212,15.658,15.658,0,0,1-11.51-5.906,5.8,5.8,0,0,0-.757,2.878,6.017,6.017,0,0,0,2.423,4.695,5.106,5.106,0,0,1-2.575-.757h0A5.535,5.535,0,0,0,43.6,15.176a4.669,4.669,0,0,1-1.514.151,2.577,2.577,0,0,1-1.06-.151,5.738,5.738,0,0,0,5.3,3.938,11.435,11.435,0,0,1-6.967,2.423A4.193,4.193,0,0,1,38,21.385a14.3,14.3,0,0,0,8.633,2.726" transform="translate(-38 -2)" fill="#64afd6" fill-rule="evenodd"/>
</svg>
