<svg xmlns="http://www.w3.org/2000/svg" width="1364" height="442.828" viewBox="0 0 1364 442.828">
  <g id="layer1" transform="translate(-649.698 332.715)">
    <g id="g32" transform="translate(649.698 -332.715)">
      <path id="path46" d="M132.066,609.524c-15.955-1.014-27.2-3.836-40.726-10.22C58.427,583.771,34.4,552.283,24.133,511.223c-4.625-18.5-5.651-28.735-5.614-56.04.034-24.336.208-26.827,2.71-38.528,3.759-17.583,6.847-26.583,14.251-41.53,19.453-39.271,52.109-65.408,89.961-72,40.6-7.071,77.091,2.494,100.694,26.392,24.593,24.9,36.355,58.354,38.573,109.714.619,14.336.511,16.253-1,17.763-1.568,1.568-9.561,1.692-108.848,1.692H47.705l.583,13.26c2.444,55.544,29.053,96.066,71.08,108.245,37.892,10.981,82.551,1.11,120.483-26.628,8.277-6.053,8.3-6.026,8.3,10.19v14l-4.754,3.463c-19.7,14.354-50.374,25.744-74.3,27.591-20.313,1.568-22.876,1.618-37.027.718ZM234.529,430.846c.919-1.487-1.469-21.5-3.842-32.2-8.848-39.9-31.712-64.178-66.024-70.118-10.06-1.742-32.087-.665-41.465,2.026-16.937,4.86-29.363,12.012-40.74,23.45C70.8,365.718,62.195,380.286,56.142,398.545c-2.762,8.333-7.136,27.742-7.136,31.67,0,1.256,12.386,1.45,92.508,1.45,50.88,0,92.736-.369,93.015-.82ZM384.751,609.522c-19.651-1.263-34.208-6.051-49.693-16.345-9.655-6.418-22.253-19.4-28.864-29.743-3.027-4.736-5.834-8.626-6.237-8.645s-.853,10.885-1,24.232l-.268,24.267h-27.02l-.273-215.654c-.151-118.61-.03-216.668.269-217.906.528-2.19.894-2.252,13.426-2.252,10.825,0,12.981.253,13.491,1.583.334.871.608,45.227.608,98.571,0,62.65.347,96.988.98,96.988.539,0,1.856-1.716,2.926-3.813,6.659-13.053,24.7-31.8,39.5-41.061,24.2-15.134,54.527-21.813,82.364-18.138,9.791,1.292,23.884,4.478,28.977,6.549,31.39,12.768,53.879,37.886,65.84,73.538,1.861,5.546,3.587,10.288,3.836,10.537s1.26-1.7,2.246-4.323,3.585-8.378,5.774-12.781c19.542-39.3,52.291-65.429,90.247-72.007,40.576-7.032,77.053,2.539,100.619,26.4,24.577,24.884,36.352,58.4,38.551,109.727.613,14.3.5,16.271-.989,17.763-1.55,1.55-9.885,1.678-108.835,1.678H544.067l.606,13.26c2.551,55.844,28.937,96.039,71.058,108.245,37.864,10.972,82.413,1.122,120.483-26.639,8.372-6.1,8.4-6.071,8.076,10.419l-.278,14.219-6,4.234c-6.935,4.89-25,14.124-34.66,17.719-22.6,8.407-47.846,11.36-78.422,9.172-38.895-2.784-73.952-27.98-93.316-67.068-4.058-8.192-10.26-25.074-10.26-27.93,0-3.446-1.619-1.269-3.839,5.164A157.5,157.5,0,0,1,485.257,573.1c-19.229,20.552-43.807,33.417-68.161,35.675-16.141,1.5-19.521,1.576-32.345.752Zm36.62-27.608c16.253-4.235,28.312-11.541,41.032-24.86,23.426-24.528,34.986-57.037,36.582-102.872,1.116-32.041-3.2-55.726-14.138-77.556-10.176-20.314-27.2-36.47-45.812-43.475-12.117-4.561-21.578-5.871-38.209-5.291-30.64,1.069-50.848,9.621-69.644,29.474-17.8,18.8-28.251,42.947-30.918,71.425-1.363,14.552-1.381,46.2-.034,60.448,1.727,18.273,6.495,33.7,14.58,47.167,15.9,26.484,36.786,41.456,65.437,46.9,10.3,1.957,31.023,1.272,41.123-1.36Zm309.52-151.068c.928-1.5-1.479-21.549-3.9-32.445-8.838-39.858-32.36-64.543-66.6-69.894-10.647-1.664-31.534-.617-40.839,2.048-15.617,4.471-27.5,10.976-38.553,21.11-16.064,14.723-28.254,38.836-33.577,66.423-1.133,5.873-2.061,11.331-2.061,12.129,0,1.256,12.386,1.45,92.508,1.45,50.88,0,92.736-.369,93.015-.82ZM-368.038,603.132c-.98-.4-1.242-43.568-1.253-206.052l-.011-205.548,2.253-.545c1.24-.3,44.809-.421,96.822-.27l94.569.275v27.019l-81.559.5-81.559.5V381.128l75.555.5,75.555.5v27.019l-75.555.5-75.555.5V575.267l86.063.5,86.063.5v27.019l-100.073.174c-55.04.1-100.631-.053-101.313-.33Zm222.567-.011c-.367-.367-.667-66.474-.667-146.905,0-112.407.278-146.516,1.2-147.439,1.511-1.511,22.114-1.647,24.884-.165,1.846.988,1.936,2.4,1.947,30.272l.011,29.236,6.392-13.009c7.309-14.876,13.7-23.8,23.056-32.173,17.114-15.324,33.239-20.927,57.843-20.1l13.76.463V236.97c0-36.481.273-67.042.607-67.912.907-2.364,26.9-2.364,27.806,0,.334.871.607,98.5.607,216.956,0,166.178-.274,215.647-1.2,216.574-.808.808-5.358,1.2-13.9,1.2-10.66,0-12.8-.254-13.31-1.583-.334-.871-.607-61.912-.607-135.648V332.492l-3.753-1.7c-2.914-1.32-6.661-1.7-16.762-1.7-11.5,0-13.83.3-20.075,2.586-16.973,6.212-33.231,22.437-43.972,43.883-4.41,8.805-10.313,28.121-12.472,40.807-3.632,21.342-4.039,32.327-4.04,109.033,0,41.372-.274,75.934-.608,76.805-.51,1.329-2.653,1.583-13.343,1.583-7,0-13.036-.3-13.4-.667Zm913.693.026c-.382-.382-.695-66.769-.695-147.527,0-132.968.149-146.889,1.583-147.439,2.06-.79,22.795-.79,24.854,0,1.384.531,1.583,3.682,1.583,25.018,0,13.426.343,24.41.763,24.41s3.193-3.715,6.164-8.256c7.023-10.734,22.376-25.978,32.48-32.25,25.111-15.587,62.059-20.6,91.812-12.456,30.544,8.36,52.82,32.7,62.486,68.266,4.829,17.771,5.414,32.368,5.428,135.447.011,84.992-.143,94.27-1.571,94.818-3.214,1.233-24.143.666-25.264-.685-.741-.893-1.192-31.578-1.458-99.321-.343-87.206-.573-98.968-2.084-106.534-2.89-14.468-5.61-23.143-10.352-33.024-3.821-7.961-5.883-10.81-12.683-17.521-13.169-13-24.3-17.335-46.649-18.185-17.506-.665-29.183,1.554-42.786,8.13-28.223,13.645-47.216,39.87-54.027,74.6-1.458,7.437-1.739,20.174-2.215,100.582l-.545,92.066-13.065.278c-7.186.153-13.378-.034-13.76-.417Z" transform="translate(369.302 -167.285)" fill="#f9f8f6"/>
      <path id="path44" d="M124.509,608.574A132.74,132.74,0,0,1,109,605.119C66.018,592.8,35.566,558.382,23.921,508.965c-4.477-19-5.18-26.345-5.16-53.926.015-22.839.289-27.364,2.236-37.026,9.38-46.559,36.5-85.507,72-103.425,15.469-7.806,31.578-11.806,51.645-12.823,49.907-2.529,88.032,22.338,106.129,69.223,6.492,16.819,9.975,33.725,11.648,56.531,1.331,18.153,1.266,27.349-.205,28.82-.919.919-26.4,1.2-108.579,1.2H46.263v8.282c0,22,6.067,48.722,15.029,66.2,16.246,31.688,42.313,49.368,77.631,52.655,24.946,2.321,51.53-2.981,75.43-15.046,7.6-3.834,21.093-12.165,26.194-16.168,2.006-1.574,4.145-2.861,4.753-2.861.754,0,1.107,4.312,1.107,13.53v13.53l-7.549,4.928c-20.785,13.568-46.413,22.762-72.483,26-9.693,1.2-32.52,1.193-41.867-.019ZM234.781,431.713c.75-1.214-1.191-20.649-2.917-29.212-8.741-43.352-32.606-69.5-68.569-75.141-10.515-1.648-31.458-.585-40.839,2.073A91.048,91.048,0,0,0,94.729,342c-20.907,13.848-35.583,36.553-43.334,67.037-2.575,10.126-4.36,21.305-3.6,22.536.725,1.174,186.261,1.312,186.985.14ZM377.752,608.581c-22.338-2.9-42.824-13.419-59.019-30.293-6.585-6.861-17.347-21.361-18.564-25.013-.187-.562-.877-.69-1.533-.285-.869.537-1.192,7.354-1.192,25.195v24.458H271.425V167.335h26.019v99.511c0,61.2.363,99.736.943,100.094.519.32,2.78-2.563,5.026-6.408,27.155-46.5,81.853-68.351,137.751-55.042a98.071,98.071,0,0,1,33.408,14.965c20.075,13.6,36.384,37.242,44.7,64.783,1.537,5.091,3.094,9.257,3.46,9.257s1.874-3.04,3.35-6.755c14.726-37.053,42.143-65.771,74.751-78.3,17.586-6.756,42.395-9.555,61.555-6.945,32.2,4.387,54.764,18.19,71.964,44.027,9.925,14.909,16.573,31.56,20.832,52.181,3.467,16.784,5.856,54.611,3.62,57.306-1.126,1.356-13.525,1.531-108.879,1.531H542.314l.59,13.786c2.411,56.373,29.4,97.351,72.317,109.786,18.34,5.315,44.171,5.323,65.072.023,17.163-4.354,43.317-17.11,56.52-27.566,2.057-1.629,4.238-2.962,4.847-2.962.754,0,1.107,4.3,1.107,13.472v13.472l-5.754,3.868c-27.333,18.372-60.435,28.209-94.819,28.179-21.989-.019-37.553-3.152-54.122-10.894-31.921-14.915-56.817-46.338-66.451-83.872-.6-2.339-1.488-4.253-1.972-4.253s-2.1,3.653-3.583,8.118c-3.632,10.906-12.753,28.665-20.014,38.969-7.506,10.651-22.873,26.022-32.289,32.3-9.669,6.446-24.138,13.107-33.859,15.589-14.872,3.8-36.554,5.056-52.151,3.029Zm42.98-25.864c33.566-8.633,60.111-38.34,71.89-80.452,3.576-12.786,6.045-30.7,6.647-48.227,2.288-66.593-23.347-111.972-70.739-125.224-10.15-2.838-39.395-2.608-51.335.4-25.213,6.36-44.327,19.727-58.173,40.681-16.548,25.043-21.535,45.782-21.553,89.643-.019,43.367,4.768,62.1,22.068,86.368a93.476,93.476,0,0,0,25.733,24.836c10.954,7.154,20.349,10.488,40.238,14.28,5.625,1.073,27.706-.374,35.224-2.308Zm310.208-157.7c-2.117-46.684-23.716-82.72-56.277-93.9-11.26-3.865-20.612-5.012-35.472-4.354-19.256.853-32.937,5.185-48.1,15.231-20.907,13.848-35.584,36.553-43.335,67.037-2.579,10.142-4.36,21.306-3.6,22.542.37.6,35.466.859,93.845.7l93.255-.255ZM-369.036,396.993V191.342l95.819.255,95.819.255v25.018l-81,.256c-63.278.2-81.176.529-81.794,1.5-.916,1.442-1.125,159.9-.214,162.277.546,1.424,8.183,1.583,76.085,1.583h75.477l-.28,12.759-.28,12.759-75,.257c-58.474.2-75.173.531-75.789,1.5-.916,1.442-1.124,162.905-.213,165.279.547,1.426,9.059,1.583,86.027,1.583,83.428,0,85.444.045,86.456,1.936,1.106,2.067,1.445,19.852.429,22.5-.548,1.429-10.385,1.583-101.073,1.583H-369.035ZM-145.4,601.423c-.268-.705-.372-66.8-.231-146.885l.257-145.6,10.508-.292c5.779-.16,11.521-.039,12.759.269l2.252.561v30.5c0,16.776.345,30.5.767,30.5s2.519-4.165,4.662-9.257q15.27-36.29,44.108-50.34c12.734-6.216,21.482-7.825,39.271-7.224l14.253.482.257-68.152.257-68.152H9.737V602.143H-16.281l-.5-135.1-.5-135.1-4-2c-3.394-1.7-5.983-2-17.012-1.985-11.441.015-13.861.326-20.074,2.586-26.389,9.6-47.781,39.508-56.106,78.455-4.531,21.2-4.69,24.51-5.3,110.578l-.582,82.558-12.278.281c-9.268.212-12.4-.034-12.766-1ZM768.034,455.789l.253-146.854h25.018l.5,25.186c.275,13.853.757,25.443,1.071,25.756s3.442-3.816,6.951-9.175c11.672-17.829,29.327-33.045,46.76-40.3,30.372-12.644,70.544-11.573,95.9,2.557,14.023,7.813,26.878,21.819,34.727,37.835,8.16,16.652,12.025,32.816,13.682,57.214.571,8.4,1.026,54.556,1.035,104.853l.016,89.842-13.26-.279-13.26-.279-.568-97.569c-.4-68.783-.922-99.636-1.766-104.574-4.451-26.028-11.727-42.853-23.68-54.759-14.062-14.007-31.149-19.643-56.045-18.486-23.2,1.078-40.99,8.52-57.042,23.865-20.725,19.813-30.8,41.519-33.517,72.216-.556,6.283-.994,48.157-1,95.5l-.009,84.31H767.78Z" transform="translate(370.049 -167.144)" fill="#f8f6f4"/>
      <path id="path42" d="M124.321,607.431C105.856,604.314,89,597.652,74.88,587.89c-9.524-6.584-23.7-21.258-30.459-31.523-13.524-20.548-21.449-44.716-24.7-75.31-4.831-45.514,2.969-86.871,22.243-117.946,27.435-44.233,69-65.508,119.661-61.245,33.89,2.852,58.644,17.33,76.733,44.876,15.36,23.391,22.791,51.127,23.791,88.792l.538,20.264H155.1c-93.367,0-107.752.194-108.81,1.469-2.736,3.3,1.814,38.78,7.089,55.274,9.476,29.633,27.974,52.076,52.25,63.393a128.437,128.437,0,0,0,16.189,5.637c9.173,2.525,11.508,2.758,28.02,2.785,13.706.023,20.047-.4,26.519-1.787,19.908-4.253,38.68-12.395,57.739-25.043,6.163-4.09,11.454-7.187,11.759-6.883s.553,6.268.553,13.254v12.7l-5.527,3.669a185.355,185.355,0,0,1-49.966,22.555c-20.288,5.565-49.117,7.559-66.6,4.608ZM234.678,423.01c-.617-22.959-9.274-50.589-20.751-66.222-4.894-6.667-16.093-16.916-22.9-20.956-19.812-11.763-50.933-13.871-76.134-5.157-28.194,9.748-49.756,33.3-60.5,66.084-3.463,10.566-7.09,26.768-7.114,31.777l-.015,3.257,93.818-.255,93.818-.255ZM380.005,607.935Q332.253,601.1,305.872,560.9c-3.616-5.519-6.984-10.034-7.483-10.034s-1.025,10.991-1.176,25.267l-.267,25.267H271.927l-.253-216.9-.252-216.9h26.023V267.11c0,58.258.375,99.741.905,100.069.5.308,2.362-2.03,4.143-5.195a118.837,118.837,0,0,1,61.888-52.968c28.651-10.784,65.9-10.144,93.18,1.6,28.365,12.213,50.33,38.491,61.071,73.063,1.787,5.754,3.636,10.023,4.25,9.818.6-.2,2.939-4.852,5.2-10.34,9.664-23.436,29.513-48.658,48.186-61.231,23.3-15.687,51.375-22.63,81.261-20.094,34.491,2.926,59.422,17.52,77.388,45.3,15.382,23.784,22.537,50.6,23.584,88.4l.561,20.264h-107.6c-96.572,0-107.732.161-108.9,1.572-1.061,1.278-1.083,4.16-.118,15.424,2.042,23.836,6.471,41.622,14.276,57.323,18.8,37.824,51.162,56.317,95.375,54.5,27.753-1.138,51.747-9.434,78.359-27.1,6.163-4.09,11.454-7.187,11.758-6.883s.554,6.269.554,13.254v12.7l-5.527,3.669c-29.138,19.346-65.433,29.612-100.049,28.3-35.212-1.336-60.434-12.215-83.122-35.854-14.92-15.545-26.68-37.154-32.448-59.625-.6-2.339-1.468-4.253-1.928-4.253s-2.28,4.134-4.044,9.186c-14.238,40.771-45.015,73.4-79.966,84.774-14.646,4.767-41.17,7.215-55.677,5.14Zm36.318-24.62c9.651-1.968,22.16-6.984,29.846-11.968,8.631-5.6,23.985-21.75,30.256-31.832,9.8-15.762,16.135-33.037,20.4-55.664,2.994-15.895,3.256-57.427.454-72.016-11.4-59.328-49.632-91.148-103.421-86.068-25.078,2.368-43.494,9.95-58.96,24.272-17.034,15.775-28.068,35.486-34.276,61.229-2.614,10.841-2.655,11.544-2.664,46.532-.011,38.552.518,43.6,6.233,59.541,9.912,27.646,32.417,51.977,56.4,60.974,16.97,6.367,39.237,8.364,55.736,5ZM731.011,423.372c-.757-24.131-9.1-50.684-20.977-66.743-5.26-7.114-15.57-16.582-22.626-20.778-19.876-11.821-50.849-13.926-76.155-5.176-33.289,11.51-56.608,41.686-65.521,84.789a107.847,107.847,0,0,0-2.109,13.264v3.065l93.818-.255,93.818-.255Zm-1100.048-27.11V190.616h95.462c86.126,0,95.521.155,96.069,1.583.891,2.321.712,21.721-.214,23.178-.618.972-18.516,1.3-81.794,1.5l-81,.256V381.247l75.554.5,75.554.5.281,12.258c.155,6.742.155,12.364,0,12.493s-34.281.467-75.835.751l-75.554.516V575.381l86.062.5,86.062.5V601.4l-100.323.255-100.323.255Zm223.623,204.386c-.262-.688-.36-66.546-.219-146.351l.257-145.1h25.018l.5,31.522c.561,35.35-.069,33.821,6.948,16.854,4.621-11.172,13.663-24.252,22.8-32.982,10.692-10.215,21.3-16.233,35.3-20.018,4.557-1.233,26.166-1.8,33.524-.88l4,.5.257-68.3.257-68.3H9.241L8.989,384.5,8.736,601.4l-11.929.283c-8.871.211-12.138-.046-12.744-1-.448-.706-.822-61.761-.83-135.678l-.015-134.394-3.541-1.479c-5.53-2.31-17.1-3.414-25.147-2.4-15.2,1.915-25.888,7.5-38.36,20.039-20.03,20.141-31.074,48.067-35,88.514-.535,5.5-.984,44.531-1,86.728s-.3,77.434-.633,78.3c-.507,1.321-2.582,1.583-12.54,1.583-8.625,0-12.065-.347-12.409-1.251Zm913.9.613c-.383-.383-.7-66.38-.7-146.66V308.635l12.759.28,12.759.28.267,25.267c.218,20.65.519,25.267,1.644,25.267a2.529,2.529,0,0,0,2.015-1.663c1.264-3.293,9.546-14.983,15.26-21.539,17.8-20.427,41.951-32.179,71.3-34.7,58.473-5.024,96.228,25.114,106.715,85.185,2.817,16.136,3.38,37.106,3.414,127.073l.033,87.81H981.638c-8.239,0-12.706-.4-13.51-1.2-.917-.917-1.205-23.36-1.22-94.815-.016-75.341-.3-95.71-1.448-104.347-4.765-35.794-17.714-58.062-40.052-68.873-10.912-5.281-20.138-7.162-35.036-7.142-26.381.034-45.87,7.862-64.007,25.707-15.658,15.4-23.876,30.43-29.832,54.538-2.036,8.243-2.119,11.4-2.666,102.07L793.3,601.4l-12.063.28c-6.634.154-12.376-.034-12.759-.417Z" transform="translate(370.048 -166.398)" fill="#f6f4f1"/>
      <path id="path40" d="M127.819,607.277C107.5,604.084,90.578,597.92,77.2,588.836c-7.673-5.211-21.618-18.416-27.417-25.963-13.492-17.559-22.906-40.937-27.8-69.048C20.113,483.1,19.8,477.538,19.8,454.8c0-25,.153-27.239,2.688-39.085,7.142-33.371,20.5-58.664,42.407-80.267a113.886,113.886,0,0,1,59.8-31.194c41.2-7.141,77.385,2.561,100.568,26.966,23.519,24.759,34.465,56.652,36.7,106.932.576,12.96.453,16.034-.672,16.746-.761.482-49.422.879-108.7.888L45.26,455.8v9.283c0,38.863,14.285,75.522,37.645,96.6,12.3,11.1,26.35,18.009,44.414,21.844,11.409,2.422,35.006,2.415,47.408-.015,19.735-3.866,39.954-12.359,57.947-24.339,5.626-3.746,10.791-7.17,11.479-7.611.978-.625,1.251,2.034,1.251,12.169V576.7l-6.755,4.268c-33.086,20.907-77.74,31.505-110.829,26.305Zm108.047-176.4c.941-2.965-2.129-26.547-4.85-37.252-4.719-18.564-12.092-32.861-22.961-44.522-11.751-12.607-24.072-19.38-41.783-22.968-12.244-2.481-33.208-1.564-45.458,1.987-39.738,11.521-65.06,44.167-73.621,94.913-.627,3.719-.883,7.434-.568,8.256.5,1.309,12.162,1.493,94.6,1.493C232.818,432.784,235.277,432.734,235.867,430.877ZM378.595,606.887c-13.158-2.288-17.765-3.557-27.169-7.483-17.206-7.184-33.235-20.94-44.721-38.381-3.389-5.146-6.324-9.842-6.522-10.437s-1.121-.789-2.052-.432c-1.526.585-1.691,3.1-1.691,25.7V600.9H272.432l-.255-216.65-.255-216.65h25.018V267.836c0,105.431.011,105.674,4.252,97.827,19.077-35.3,52.439-58.044,92.291-62.931,29.842-3.659,61.638,3.737,82.647,19.224,18.589,13.7,34.581,37.434,41.979,62.293,1.474,4.953,2.849,9.569,3.055,10.257.594,1.984,2.4,1.456,3.416-1,.514-1.238,2.317-5.667,4.006-9.842,11.592-28.648,36.082-56.437,60.563-68.723,17.59-8.827,34.733-12.579,57.541-12.592,25.248-.015,42.026,4.558,59.882,16.321,23.182,15.271,40.177,43.274,47.088,77.587,2.676,13.287,3.839,23.856,4.664,42.4.555,12.484.426,15.541-.686,16.246-.754.477-49.667.875-108.7.883-101.515.015-107.331.11-107.4,1.767-1.389,33.223,8.308,67.86,25.326,90.459,19.978,26.529,50.559,39.747,86.662,37.46,26.757-1.7,51.494-10.31,75.5-26.293,5.625-3.746,10.791-7.17,11.479-7.611.977-.625,1.251,2.031,1.251,12.155v12.955l-7.477,4.66c-20.5,12.778-44.591,21.808-65.576,24.581-4.678.618-10.134,1.544-12.125,2.056-9.088,2.341-32.407.217-50.921-4.637-11.442-3-27.131-10.532-36.039-17.3-8.348-6.344-22.423-20.99-27.354-28.464a147.441,147.441,0,0,1-17.094-35.847c-2.423-7.363-4.943-13.387-5.6-13.387s-2.67,4.053-4.471,9.006c-6.5,17.874-12.669,29.5-22.644,42.658-18.473,24.368-43.3,40.429-69.934,45.237-23.891,4.313-27.777,4.459-43.93,1.65Zm32.928-22.032c41.338-5.357,74.228-42.337,84.966-95.532,5.84-28.928,5.285-64.673-1.405-90.58-7.424-28.75-26.221-53.655-49.036-64.971-14.564-7.224-21.327-8.573-42.531-8.484-16.762.07-19.46.331-28.52,2.753-10.585,2.83-23.575,8.557-31.012,13.674-22.178,15.258-39.448,43.937-45.224,75.1-2.284,12.324-2.607,67.852-.468,80.517,5.735,33.956,27.118,64.575,54.688,78.307,17.385,8.659,37.918,11.893,58.542,9.22Zm320.7-153.978c.845-2.662-2.037-25.932-4.44-35.852-4.5-18.575-12.764-34.72-23.716-46.329-16.642-17.641-35.892-24.79-63.83-23.7-14.769.574-20.423,1.709-33.346,6.693-27.324,10.537-49.041,36.738-58.726,70.853-3.136,11.045-5.971,26.7-5.2,28.708.524,1.366,11,1.537,94.621,1.537,91.588,0,94.047-.05,94.636-1.906ZM-369.037,396.258V191.116l95.568.26,95.568.26v24h-80.858c-61.555,0-81.144.287-82.059,1.2-1.739,1.739-1.739,162.974,0,164.714.913.913,19.169,1.2,76.054,1.2h74.853v24.017h-74.853c-56.885,0-75.142.288-76.054,1.2-1.74,1.74-1.74,165.976,0,167.716.915.915,21.5,1.2,86.562,1.2h85.361v24l-100.072.26-100.072.26ZM980.431,600.9l-12.009-.5-.537-97.568c-.48-87.21-.722-98.524-2.281-106.574-3-15.511-5.583-23.675-10.878-34.412-8.9-18.048-22.822-29.739-41.344-34.72-9.334-2.51-30.171-3-41-.958-29.564,5.564-53.7,24.878-67.772,54.24-5.882,12.27-9.3,25.152-10.733,40.461-.659,7.036-1.07,43.741-1.073,95.72V600.9H768.777l.254-145.851.254-145.851H792.3l.543,26.018c.3,14.31.636,26.131.75,26.268.909,1.1,2.7-.928,7.526-8.506,17-26.7,38.954-42.424,67.26-48.183,36.466-7.42,69.674-.3,90.392,19.378,16.92,16.072,26.376,35.85,31.847,66.607,1.463,8.226,1.732,19.754,2.027,87.035.188,42.655.219,87.911.069,100.569l-.272,23.016-12.009-.5ZM-144.629,455.049l.253-145.851h23.017l.264,31.772c.212,25.481.525,31.772,1.582,31.772.731,0,2.952-4.123,4.985-9.256,6.533-16.489,12.113-25.222,23.178-36.275,11.2-11.189,17.448-15.291,30.272-19.879,8.568-3.066,9.177-3.138,26.78-3.179l18.013-.042V167.6h25.5L8.978,384,8.734,600.4l-12.259.281-12.259.281V466.529c0-106.288-.263-134.792-1.257-136.151-3.589-4.909-25.182-6.22-38.57-2.342-27.331,7.916-49.8,37.163-59.276,77.145-5.159,21.778-5.255,23.657-5.689,112.412l-.408,83.308h-23.9Z" transform="translate(370.049 -166.398)" fill="#f4f1ec"/>
      <path id="path38" d="M141.694,608.063a37.371,37.371,0,0,1,7-.008c2.076.217.623.4-3.23.4s-5.552-.173-3.775-.394Zm251.716,0a17.818,17.818,0,0,1,5,.015c1.231.238-.015.426-2.766.418s-3.759-.2-2.238-.432Zm245.161-.011a43.545,43.545,0,0,1,7.505,0c2.064.216.375.393-3.753.393S636.508,608.271,638.572,608.055ZM123.752,605.7a114.921,114.921,0,0,1-46.4-17.983c-27.152-18.311-45.731-48.476-53.318-86.57-5.2-26.127-5.519-63.467-.728-86.19,2.812-13.337,8.5-30.279,13.465-40.1C49.74,349.2,71.347,326.5,93.432,315.339c8.1-4.1,22.158-8.694,31.929-10.446,14.274-2.559,37.527-2.312,50.63.538,30.4,6.611,52.531,24.363,67.549,54.184,10.927,21.7,16.149,46.367,16.734,79.054l.278,15.511-108.077.5-108.077.5-.306,8.006c-1.076,28.147,9.409,64.689,24.118,84.057,10.36,13.643,27.145,26.871,40.427,31.861,38.595,14.5,83.633,7.554,124.25-19.163,4.758-3.13,9.214-6.051,9.9-6.492.975-.625,1.251,1.753,1.251,10.776V575.8l-6.757,4.371a171.511,171.511,0,0,1-67.424,25.063c-11.353,1.651-36.3,1.9-46.106.466Zm112.2-173.444c1.373-1.654.023-18.1-2.552-31.116-5.281-26.68-17.806-49.2-34.188-61.471-9.212-6.9-14.264-9.495-24.747-12.711-8.406-2.579-10.145-2.755-27-2.734-16.58.023-18.729.236-27.019,2.7-39.379,11.706-64.85,43.385-73.758,91.734-1.18,6.406-1.856,12.4-1.5,13.326.6,1.554,7.631,1.678,95.12,1.678,79.922,0,94.656-.217,95.643-1.406ZM379.135,606.122c-32.985-5.122-57.783-21.815-75.2-50.624-4.075-6.739-6.956-8.545-8.251-5.172-.334.871-.607,12.353-.607,25.517v23.935H273.06V384.215c0-171.515-.256-215.667-1.251-216.069-.688-.278,4.829-.5,12.259-.5s12.947.227,12.259.5c-.989.4-1.251,21.222-1.251,99.407,0,54.4.273,99.615.607,100.485,1.333,3.473,4.206,1.6,7.913-5.172a116.3,116.3,0,0,1,49.387-47.328c37.531-18.749,87.254-16.657,119.165,5.012,20.3,13.786,36.983,37.861,45.011,64.961,1.692,5.713,3.077,10.554,3.077,10.757s.868.37,1.929.37c1.491,0,2.649-1.869,5.1-8.231,11.086-28.745,30.552-53.242,54.029-67.99,15.6-9.8,31.293-14.883,52.161-16.9a122,122,0,0,1,39.333,2.141c41.818,8.487,70.281,42.188,80.543,95.363,1.95,10.1,4.6,44.12,3.909,50.189l-.337,2.967-108.077.5-108.077.5-.313,8.506c-.831,22.57,5.8,51.215,16.409,70.883,5.56,10.308,8.572,14.4,17.345,23.549,23.3,24.309,59.348,33.589,99.343,25.578,18.145-3.635,37.972-12.09,55.706-23.754,4.758-3.13,9.214-6.051,9.9-6.492.975-.625,1.251,1.753,1.251,10.776V575.8l-6.755,4.357a171.991,171.991,0,0,1-68.3,25.19c-17.029,2.482-42.969,1.575-56.155-1.963-20.309-5.45-34.972-13.481-49.722-27.234C543.94,561.68,532.5,543.007,525.732,521.1c-2.019-6.535-4.018-12.557-4.442-13.383-1.761-3.427-3.606-1.121-7.6,9.507-7.631,20.29-12.765,29.706-24.009,44.03-20.148,25.669-45.929,40.734-76.018,44.422-8.475,1.039-29.006,1.305-34.525.448Zm31.048-20.387c36.7-4.476,67.106-32.772,81.32-75.679,13.15-39.7,13-90.573-.363-124.942-10.14-26.076-29.486-46.8-51.654-55.337-21.242-8.18-47.73-8.391-72.531-.577-15.007,4.728-25.664,11.455-37.546,23.7-16.656,17.164-27.27,38.381-32.079,64.117-2.477,13.26-2.482,69.042-.008,82.286,3.414,18.266,9.847,32.813,21.539,48.7,20.915,28.421,54.359,42.239,91.321,37.732ZM732.3,432.266c.876-1.055.888-4.193.048-12.759-5.415-55.281-30.925-88.415-73.149-95.013a124.177,124.177,0,0,0-20.382-.618c-42.836,1.76-75.164,27.639-89.972,72.024-3.947,11.831-8.32,33.438-7.3,36.087.6,1.554,7.631,1.678,95.12,1.678,79.7,0,94.658-.219,95.638-1.4Zm-1101.21-36.126c0-113.377.117-159.611.26-102.74s.143,149.633,0,206.141-.26,9.977-.26-103.4ZM991.575,600.779c0-.609-4.487-1-11.458-1H968.658l-.385-97.817c-.342-86.881-.574-98.768-2.079-106.323-3-15.084-5.616-23.3-10.819-34.023-4.36-8.99-6.269-11.668-13.219-18.549-13.685-13.549-25.833-18.336-48.652-19.174-28.529-1.047-49.733,7.11-69.131,26.595-16.32,16.393-25.787,34.433-30.565,58.24-1.494,7.444-1.737,19.064-2.091,99.738l-.4,91.312h-21.9v-290.2h22.016v24.935c0,13.714.273,25.647.607,26.518,1.264,3.294,4.01,1.532,7.853-5.036,15.813-27.031,39.453-44.481,68.2-50.338,45.09-9.188,82.227,3.255,102.967,34.5,10.974,16.533,19.11,44.457,19.663,67.488.152,6.314.177,6.372.856,2,.385-2.477.768,39.74.85,93.814s-.075,98.317-.35,98.317-.5-.45-.5-1ZM-367.4,396.14V192.5h188.134v22.015h-80.486c-71.835,0-80.655.169-82.058,1.572s-1.572,10.308-1.572,82.985.169,81.582,1.572,82.985,9.678,1.572,76.054,1.572h74.482v22.015H-266.29c-73.144,0-75.044.048-76.054,1.936-1.628,3.041-1.419,166.278.215,168.49,1.155,1.564,7.783,1.712,86.812,1.942l85.561.25.284,10.757.284,10.757H-367.4Zm223.159,58.506V309.513l10.758.284,10.758.284.5,32.022c.387,24.759.784,32,1.751,31.922.688-.055,1.643-.168,2.122-.25s2.108-3.64,3.62-7.905c10.271-28.98,29.2-49.282,54.051-57.971,7.573-2.648,8.966-2.8,25.762-2.853,10.34-.03,18.171-.469,18.749-1.047,1.374-1.374,1.888-135.359.521-135.935-.55-.232,4.853-.421,12.008-.421s12.559.189,12.009.421c-.664.279-.915,73.01-.746,216.069l.254,215.647H-15.146V332.752l-2.47-2.935c-3.355-3.987-11.27-5.615-24.218-4.982-12.39.606-20.8,3.26-30.476,9.612-23.947,15.729-39.748,44.247-46.381,83.71-3.013,17.927-3.515,33.141-3.523,106.823l-.008,74.8h-22.016Z" transform="translate(370.412 -166.282)" fill="#f2eee9"/>
      <path id="path36" d="M263.17,401.571c-3.348-11.453-5.361-44.366-3.849-62.958,1.627-20.018,5.618-39.135,8.17-39.135,1.172,0,1.578,1.37,3.3,11.092.9,5.072,1.324,16.526,1.3,34.787-.031,23.37-.347,29.027-2.244,39.95-2.356,13.567-3.641,18.029-5.191,18.029-.531,0-1.2-.794-1.481-1.765ZM-272.8,231.326l-3.1-2.61V216.674c0-13.517.343-14.135,6.436-11.589l3.647,1.524v13.664c0,12.81-.121,13.664-1.939,13.664C-268.826,233.937-271.094,232.762-272.8,231.326Z" transform="translate(627.387 -66.251)" fill="#eee8e1"/>
      <path id="path34" d="M263.343,395.782c-2.974-12.687-4.439-47.536-2.666-63.391,1.3-11.628,3.9-25.913,5.13-28.145.621-1.132.893-1.028,1.318.5,2.468,8.877,3.723,34.238,2.64,53.349-.83,14.644-4.028,38.236-5.365,39.573-.274.274-.75-.576-1.058-1.889ZM-272.121,229.344c-3.25-1.843-3.5-2.807-3.514-13.7-.015-11.121.7-12.619,4.947-10.346,1.942,1.04,2.1,2,2.1,13.186,0,6.635-.34,12.051-.756,12.034A9.823,9.823,0,0,1-272.121,229.344Z" transform="translate(628.139 -64.858)" fill="#ece5dd"/>
    </g>
  </g>
</svg>
